<?xml version="1.0" encoding="UTF-8" standalone="no"?>
<svg width="512" height="512" viewBox="0 0 512 512" version="1.1" xmlns="http://www.w3.org/2000/svg">
	<g>
		<title>Layer 1</title>
		<path stroke="null" id="svg_1" d="m215.24791,171l0,3.9375c2.46662,0.45 4.85617,1.0125 7.01446,1.575c4.93325,1.275 7.86236,6.225 6.55197,11.025s-6.39781,7.65 -11.33105,6.375c-4.20097,-1.0875 -8.13215,-1.8375 -11.63938,-1.875c-2.81349,-0.0375 -5.66553,0.6375 -7.47695,1.65c-0.80936,0.4875 -1.19477,0.9 -1.34893,1.125c-0.11562,0.1875 -0.26979,0.45 -0.26979,1.05c0,0.1125 0,0.1875 0,0.225c0.07708,0.075 0.34687,0.45 1.27185,0.975c2.23538,1.3125 5.5499,2.325 10.56023,3.7875l0.34687,0.1125l0,0c4.27805,1.2375 9.98212,2.925 14.60704,5.7375c5.28012,3.225 10.0592,8.5875 10.17482,16.8375c0.11562,8.4375 -4.39367,14.5875 -10.29045,18.1875c-2.58225,1.5375 -5.3572,2.625 -8.20923,3.3l0,3.975c0,4.9875 -4.12389,9 -9.24984,9s-9.24984,-4.0125 -9.24984,-9l0,-4.275c-3.66139,-0.8625 -7.01446,-1.9875 -9.86649,-2.925c-0.80936,-0.2625 -1.58018,-0.525 -2.31246,-0.75c-4.85617,-1.575 -7.47695,-6.675 -5.85823,-11.4s6.8603,-7.275 11.71646,-5.7c1.00207,0.3375 1.92705,0.6375 2.81349,0.9375c5.24158,1.725 9.01859,2.9625 13.0654,3.1125c3.08328,0.1125 5.81969,-0.6 7.39987,-1.5375c0.73228,-0.45 1.07915,-0.825 1.23331,-1.0875c0.15416,-0.225 0.34687,-0.675 0.30833,-1.5375l0,-0.075c0,-0.375 0,-0.7875 -1.54164,-1.725c-2.19684,-1.35 -5.51136,-2.4 -10.44461,-3.8625l-0.73228,-0.225c-4.16243,-1.2 -9.63525,-2.8125 -14.02892,-5.4c-5.20303,-3.0375 -10.21336,-8.25 -10.2519,-16.5375c-0.03854,-8.5875 4.97179,-14.475 10.67586,-17.775c2.46662,-1.425 5.12595,-2.4 7.78528,-3.075l0,-4.1625c0,-4.9875 4.12389,-9 9.24984,-9s9.24984,4.0125 9.24984,9l0.07708,0zm98.74203,117.1125c5.04887,6.675 3.58431,16.05 -3.27598,20.9625l-48.7929,34.9875c-9.01859,6.45 -19.88715,9.9375 -31.10258,9.9375l-61.81976,0l-61.66559,0c-6.82176,0 -12.33312,-5.3625 -12.33312,-12l0,-24c0,-6.6375 5.51136,-12 12.33312,-12l14.18309,0l17.30491,-13.5c8.74881,-6.825 19.61737,-10.5 30.8328,-10.5l30.1776,0l6.16656,0l24.66624,0c6.82176,0 12.33312,5.3625 12.33312,12s-5.51136,12 -12.33312,12l-24.66624,0l-6.16656,0c-3.39161,0 -6.16656,2.7 -6.16656,6s2.77495,6 6.16656,6l46.48044,0l46.13357,-33.075c6.8603,-4.9125 16.49555,-3.4875 21.54442,3.1875zm-144.37457,17.8875l0,0l-0.34687,0c0.11562,0 0.23125,0 0.34687,0z"/>
	</g>
</svg>