<svg width="400" height="400" xmlns="http://www.w3.org/2000/svg">

	<g>
		<title>Layer 1</title>
		<g stroke="null">
			<g stroke="null">
				<title stroke="null">Layer 1</title>
				<text stroke="#000" transform="matrix(1.90674 0 0 2.2491 -966.227 -310.846)" fill="#000000" x="506.62843" y="249.58976" id="svg_2" stroke-width="0" font-size="50" font-family="sans-serif" text-anchor="start" xml:space="preserve" font-weight="normal" font-style="normal">Save</text>
				<text stroke="#000" transform="matrix(1.90674 0 0 2.2491 -966.227 -310.846)" fill="#000000" x="609.62843" y="213.58976" id="svg_1" stroke-width="0" font-size="24" font-family="sans-serif" text-anchor="start" xml:space="preserve" font-weight="bold">UP</text>
				<g stroke="null">
					<title stroke="null">hand-money</title>
					<path stroke="null" class="cls-1" d="m260.86286,243.50844l0,-49.79073l24.33704,0c10.36242,1.68195 20.62722,6.81766 30.94779,12.83928l18.89781,0c8.56328,0.47506 13.04019,8.46108 4.72794,13.69952c-6.62469,4.48091 -15.34141,4.22413 -24.35098,3.49227c-6.1784,-0.28246 -6.44339,7.34407 0,7.38259c2.24543,0.16691 4.68611,-0.32099 6.806,-0.32099c11.15738,0 20.40406,-1.97725 26.03854,-10.11735l2.78934,-6.08583l28.17238,-12.83928c14.07224,-4.26264 24.086,9.2828 13.70964,18.70683a367.99837,338.77723 0 0 1 -62.6487,33.9599c-15.52272,8.6922 -31.04542,8.3969 -46.52628,0l-22.90053,-10.92622zm35.56415,-120.2912l90.82109,25.24203l-13.65385,43.88465l-6.3876,-0.89874l9.76272,-32.0982l0.13946,-0.41087a6.23419,5.73915 0 0 0 -4.35138,-7.03592l-3.06828,-0.77036l0,-0.08987l-14.44881,-3.51796l-60.87748,-17.69253l2.06412,-6.61223l0.00002,0zm-15.02064,8.85911l90.87688,25.22919l-13.70964,43.88465l-90.82109,-25.22919l13.65385,-43.88465zm31.64512,27.93828a11.2829,10.38697 0 1 1 0.47419,14.66245a11.2829,10.38697 0 0 1 -0.47419,-14.66245zm-18.39573,-17.23032l60.09646,17.15329a7.33598,6.75345 0 0 0 4.97898,8.33268l-5.32765,17.3587a7.32204,6.74063 0 0 0 -9.05143,4.63498l-60.1104,-17.15329a7.33598,6.75345 0 0 0 -5.00688,-8.33268l5.38344,-17.3587a7.32204,6.74063 0 0 0 9.06537,-4.63498l-0.0279,0zm-68.81316,46.19572l27.6982,0l0,59.53574l-27.6982,0l0,-59.53574z" fill-rule="evenodd"/>
				</g>
			</g>
		</g>
	</g>
</svg>