<?xml version="1.0" encoding="UTF-8" standalone="no"?>
<svg width="512" height="512" viewBox="0 0 512 512" version="1.1" xmlns="http://www.w3.org/2000/svg">
	<g>
		<title>Layer 1</title>
		<g stroke="null" id="svg_5">
			<text stroke="#000" fill="#FFF5FF" x="171.72165" y="281.10771" id="svg_2" stroke-width="0" font-size="50" font-family="sans-serif" text-anchor="start" xml:space="preserve" font-weight="normal" font-style="normal" transform="matrix(1.77885 0 0 2.51393 -213.654 -378.819)">Save</text>
			<text stroke="#000" fill="#FFF5FF" x="277.48916" y="243.10771" id="svg_3" stroke-width="0" font-size="24" font-family="sans-serif" text-anchor="start" xml:space="preserve" font-weight="bold" transform="matrix(1.77885 0 0 2.51393 -213.654 -378.819)">UP</text>
			<g stroke="null" id="svg_1">
				<title stroke="null" fill="#FFF5FF">hand-money</title>
				<path stroke="null" fill="#FFF5FF" id="svg_4" class="cls-1" d="m330.91584,322.55522l0,-55.65329l22.70475,0c9.66741,1.87999 19.24374,7.62039 28.8721,14.35102l17.63033,0c7.98894,0.53098 12.16557,9.45732 4.41084,15.31254c-6.18038,5.00851 -14.31244,4.72149 -22.71775,3.90347c-5.76402,-0.31573 -6.01124,8.20879 0,8.25184c2.09483,0.18657 4.3718,-0.35878 6.34952,-0.35878c10.40906,0 19.03555,-2.21005 24.29212,-11.3086l2.60226,-6.80239l26.28285,-14.35102c13.12841,-4.76454 22.47053,10.37579 12.79012,20.90944a343.3165,378.66617 0 0 1 -58.44683,37.95847c-14.48159,9.71565 -28.96318,9.38556 -43.40574,0l-21.36457,-12.21272l0,0.00002zm33.17885,-134.45476l84.72968,28.21411l-12.73807,49.05181l-5.95919,-1.00457l9.10793,-35.87757l0.13012,-0.45922a5.81607,6.4149 0 0 0 -4.05953,-7.86435l-2.8625,-0.86107l0,-0.10047l-13.47972,-3.93218l-56.79439,-19.77572l1.92568,-7.39079l0,0.00002zm-14.01318,9.9022l84.78172,28.19976l-12.79012,49.05181l-84.72968,-28.19976l12.73807,-49.05181zm29.52268,31.22784a10.52615,11.60998 0 1 1 0.44238,16.38887a10.52615,11.60998 0 0 1 -0.44238,-16.38887zm-17.16192,-19.25908l56.06574,19.17298a6.84396,7.54863 0 0 0 4.64504,9.31383l-4.97032,19.40258a6.83093,7.53429 0 0 0 -8.44435,5.18071l-56.07876,-19.17298a6.84396,7.54863 0 0 0 -4.67106,-9.31383l5.02237,-19.40258a6.83093,7.53429 0 0 0 8.45735,-5.18071l-0.02602,0l0.00002,0zm-64.19783,51.63498l25.84046,0l0,66.54572l-25.84046,0l0,-66.54572z" fill-rule="evenodd"/>
			</g>
		</g>
	</g>
</svg>